<?xml version="1.0" encoding="utf-8"?>
<!-- Generated by IcoMoon.io -->
<!DOCTYPE svg PUBLIC "-//W3C//DTD SVG 1.1//EN" "http://www.w3.org/Graphics/SVG/1.1/DTD/svg11.dtd">
<svg version="1.1" xmlns="http://www.w3.org/2000/svg" xmlns:xlink="http://www.w3.org/1999/xlink" width="22" height="22" viewBox="0 0 22 22">
<g>
</g>
	<path d="M10.5 8c-1.6-2.9-3.4-5.2-3.5-5.4-2.6 1.2-4.5 3.6-5.2 6.5 0.3 0 4.2 0.1 8.7-1.1v0zM11.6 11.1c0.1 0 0.2-0.1 0.4-0.1-0.2-0.5-0.5-1.1-0.8-1.6-4.8 1.4-9.4 1.3-9.6 1.3 0 0.1 0 0.2 0 0.3 0 2.4 0.9 4.6 2.4 6.3 0 0 0 0 0 0s2.6-4.5 7.6-6.2v0zM5.3 18.4v0c-0.1-0.1-0.1-0.1-0.2-0.2 0.1 0.2 0.2 0.2 0.2 0.2zM8.8 2c0 0-0.1 0 0 0-0.1 0 0 0 0 0v0zM17.2 4c-1.6-1.5-3.8-2.3-6.2-2.3-0.8 0-1.5 0.1-2.2 0.3 0.1 0.2 1.9 2.5 3.5 5.5 3.5-1.4 4.9-3.4 4.9-3.5v0zM11 22c-6 0-11-4.9-11-11s4.9-11 11-11c6 0 11 4.9 11 11s-4.9 11-11 11zM12.6 12.6c-5.5 1.9-7.3 5.8-7.3 5.8 1.6 1.2 3.6 2 5.7 2 1.3 0 2.5-0.3 3.7-0.7-0.2-0.9-0.7-3.7-2.1-7.1 0 0 0 0 0 0v0zM13 8.8c0.2 0.4 0.4 0.9 0.6 1.4 0.1 0.2 0.1 0.3 0.2 0.5 3.2-0.4 6.4 0.3 6.5 0.3 0-2.2-0.8-4.3-2.1-5.8 0-0.1-1.5 2.1-5.2 3.6v0zM14.4 12.1c1.2 3.4 1.7 6.1 1.8 6.7 2.1-1.4 3.6-3.7 4-6.3-0.1 0-2.8-0.9-5.8-0.4z" fill="#1a1a1a" />
</svg>
