<?xml version="1.0" encoding="utf-8"?>
<!-- Generated by IcoMoon.io -->
<!DOCTYPE svg PUBLIC "-//W3C//DTD SVG 1.1//EN" "http://www.w3.org/Graphics/SVG/1.1/DTD/svg11.dtd">
<svg version="1.1" xmlns="http://www.w3.org/2000/svg" xmlns:xlink="http://www.w3.org/1999/xlink" width="22" height="22" viewBox="0 0 22 22">
<g>
</g>
	<path d="M14.7 14.4c-0.8 0-1.5 0.9-1.5 2.1 0 1.2 0.7 2.1 1.5 2.1 0.8 0 1.5-0.9 1.5-2.1 0.1-1.2-0.6-2.1-1.5-2.1zM20 8.9c0.2-0.4 0.2-2.9-0.7-5.2 0 0-2.1 0.2-5.3 2.4-0.7-0.2-1.8-0.3-3-0.3-1.1 0.1-2.3 0.2-3 0.3-3.2-2.2-5.3-2.4-5.3-2.4-0.9 2.3-0.9 4.8-0.7 5.2-1.1 1.2-1.8 2.6-1.8 4.5 0 8.4 7 8.6 8.8 8.6 0.4 0 1.2 0 2 0 0.8 0 1.6 0 2 0 1.8 0 8.8-0.1 8.8-8.6 0-1.9-0.7-3.3-1.8-4.5v0zM11 21v0c-4.5 0-7.9-0.5-7.9-4.8 0-1 0.4-2 1.2-2.8 1.4-1.3 3.9-0.6 6.6-0.6 0 0 0 0 0 0 0 0 0 0 0 0 2.8 0 5.2-0.7 6.6 0.6 0.9 0.8 1.2 1.7 1.2 2.8 0.2 4.2-3.2 4.8-7.7 4.8zM7.3 14.4c-0.8 0-1.5 0.9-1.5 2.1 0 1.2 0.7 2.1 1.5 2.1s1.5-0.9 1.5-2.1-0.7-2.1-1.5-2.1z" fill="#1a1a1a" />
</svg>
