<?xml version="1.0" encoding="utf-8"?>
<!-- Generated by IcoMoon.io -->
<!DOCTYPE svg PUBLIC "-//W3C//DTD SVG 1.1//EN" "http://www.w3.org/Graphics/SVG/1.1/DTD/svg11.dtd">
<svg version="1.1" xmlns="http://www.w3.org/2000/svg" xmlns:xlink="http://www.w3.org/1999/xlink" width="22" height="22" viewBox="0 0 22 22">
<g>
</g>
	<path d="M17.7 20.8c-0.9 0.4-1.8 0.7-2.5 0.9s-1.6 0.3-2.4 0.3c-1 0-1.9-0.1-2.6-0.4-0.8-0.3-1.4-0.6-1.9-1.1-0.5-0.5-0.9-1-1.1-1.5-0.2-0.5-0.3-1.3-0.3-2.3v-7.6h-2.6v-3.1c0.8-0.3 1.6-0.7 2.2-1.2 0.6-0.5 1.1-1.1 1.5-1.9 0.4-0.7 0.6-1.7 0.8-2.8h3.1v5.5h5.1v3.4h-5.1v5.6c0 1.3 0.1 2.1 0.2 2.4 0.1 0.4 0.4 0.6 0.7 0.9 0.5 0.3 1 0.4 1.6 0.4 1.1 0 2.2-0.4 3.3-1.1v3.6z" fill="#1a1a1a" />
</svg>
