<?xml version="1.0" encoding="utf-8"?>
<!-- Generator: Adobe Illustrator 17.1.0, SVG Export Plug-In . SVG Version: 6.00 Build 0)  -->
<!DOCTYPE svg PUBLIC "-//W3C//DTD SVG 1.1//EN" "http://www.w3.org/Graphics/SVG/1.1/DTD/svg11.dtd">
<svg version="1.1" id="Layer_1" xmlns="http://www.w3.org/2000/svg" xmlns:xlink="http://www.w3.org/1999/xlink" x="0px" y="0px"
	 viewBox="144.2 327.7 830.9 150.2" enable-background="new 144.2 327.7 830.9 150.2" xml:space="preserve">
<g>
	<path fill="#251F17" d="M199.3,425.3v-19.5c0-5.3-0.7-9-2-11.2c-1.3-2.2-4.6-3.3-10-3.3c-4.3,0-7.6,0.6-10,1.9
		c-2.4,1.3-3.6,2.6-3.6,3.8c0,0.9,0.8,2.2,2.5,3.9c1.7,1.7,2.6,3.9,2.6,6.5c0,3.7-1.4,7-4.2,9.7c-2.8,2.7-6.4,4.1-10.6,4.1
		c-3.9,0-7.3-1.3-10.1-3.8c-2.8-2.6-4.2-5.7-4.2-9.4c0-6.4,3.8-11.8,11.3-16.2c7.5-4.5,18-6.7,31.4-6.7c10.3,0,19,1.3,26,3.9
		c7,2.6,10.5,8.5,10.5,17.6v45.8c0,7.9,2.2,11.8,6.6,11.8c1.2,0,2.9-0.7,5.1-2.1l2.9,4.9c-6.1,7.2-13.3,10.7-21.4,10.7
		c-8.5,0-15.6-4.4-21.3-13.1c-9.5,8.8-20,13.1-31.6,13.1c-7.8,0-14-2-18.4-6.1c-4.5-4.1-6.7-9.2-6.7-15.3
		C144.2,437.1,162.6,426.8,199.3,425.3z M199.3,445.2V431c-9.8,0.4-16.6,1.9-20.4,4.6c-3.8,2.7-5.7,7.3-5.7,13.6
		c0,4.9,1.2,8.8,3.6,11.6c2.4,2.8,5.5,4.2,9.2,4.2c4.3,0,7.5-1.4,9.9-4.2C198.1,458.1,199.3,452.9,199.3,445.2z"/>
	<path fill="#251F17" d="M295.5,385.2v18.4h0.4c7.7-12.3,18.4-18.4,32.2-18.4c6.1,0,11.5,1.3,16.1,3.9c4.6,2.6,7.6,5.3,8.8,8
		c1.3,2.7,1.9,6.8,1.9,12.3v59.2h12.3v6.6h-54.5v-6.6h12.6v-60.8c0-5.5-0.7-9.1-2.2-10.7c-1.5-1.7-3.6-2.5-6.2-2.5
		c-3.6,0-8.1,2.3-13.4,6.8c-5.4,4.6-8,12.6-8,24v43.2h12.7v6.6h-55v-6.6h12.7v-73.9h-12.5v-6.7h7.9c7.2,0,14.3-0.4,21.3-1.4l9.7-1.3
		H295.5z"/>
	<path fill="#251F17" d="M461.6,327.7v141h11.9v6.4h-13.6c-4.4,0-8.5,0.1-12.4,0.3l-12.4,1h-3v-13.1h-0.4
		c-4.6,9.7-11.8,14.5-21.6,14.5c-9.5,0-17.7-4.6-24.9-13.7c-7.1-9.2-10.7-20.5-10.7-33.9c0-13,3.6-23.7,10.8-32.2
		c7.2-8.5,15.6-12.8,25.2-12.8c8.1,0,15.3,3.7,21.6,11.1v-59.8h-17.6v-6.6h15.5c3.5,0,9.5-0.3,17.8-1
		C456.1,328.1,460.7,327.7,461.6,327.7z M432.1,441.4v-23.3c0-9-1.7-15.8-5-20.1c-3.4-4.4-6.8-6.6-10.3-6.6c-2.8,0-4.9,1.6-6.4,4.7
		c-1.5,3.1-2.3,9.4-2.3,18.9v32.7c0,9.1,0.6,15.1,1.7,18.2c1.1,3.1,3.2,4.7,6.1,4.7c3.1,0,6.6-2,10.5-6.1
		C430.2,460.4,432.1,452.7,432.1,441.4z"/>
	<path fill="#251F17" d="M538.8,425.3v-19.5c0-5.3-0.7-9-2-11.2c-1.3-2.2-4.6-3.3-10-3.3c-4.3,0-7.6,0.6-10,1.9
		c-2.4,1.3-3.6,2.6-3.6,3.8c0,0.9,0.8,2.2,2.5,3.9c1.7,1.7,2.6,3.9,2.6,6.5c0,3.7-1.4,7-4.2,9.7c-2.8,2.7-6.4,4.1-10.6,4.1
		c-3.9,0-7.3-1.3-10.1-3.8c-2.8-2.6-4.2-5.7-4.2-9.4c0-6.4,3.8-11.8,11.3-16.2c7.5-4.5,18-6.7,31.4-6.7c10.3,0,19,1.3,26,3.9
		c7,2.6,10.5,8.5,10.5,17.6v45.8c0,7.9,2.2,11.8,6.6,11.8c1.2,0,2.9-0.7,5.1-2.1l2.9,4.9c-6.1,7.2-13.3,10.7-21.4,10.7
		c-8.5,0-15.6-4.4-21.3-13.1c-9.5,8.8-20,13.1-31.6,13.1c-7.8,0-14-2-18.4-6.1c-4.5-4.1-6.7-9.2-6.7-15.3
		C483.7,437.1,502.1,426.8,538.8,425.3z M538.8,445.2V431c-9.8,0.4-16.6,1.9-20.4,4.6c-3.8,2.7-5.7,7.3-5.7,13.6
		c0,4.9,1.2,8.8,3.6,11.6c2.4,2.8,5.5,4.2,9.2,4.2c4.3,0,7.5-1.4,9.9-4.2C537.7,458.1,538.8,452.9,538.8,445.2z"/>
	<path fill="#251F17" d="M582.4,387.9h54.2v6.7h-12.4l21.2,45l14.8-33.1c0-0.3,0.4-1.3,1.3-3.1c0.9-1.8,1.3-3.4,1.3-4.9
		c0-2.6-2.4-3.9-7-3.9H650v-6.7h33.8v6.7c-4.7,0-7.8,0.2-9.3,0.5c-1.5,0.4-3.8,4.2-7,11.6l-31,71.1h-5.1l-39-83.3h-10V387.9z"/>
	<path fill="#251F17" d="M734.8,385.2v83.4h8.4v6.6h-48.5v-6.6h10.4v-73.9h-10.4v-6.7h13.8c7.1,0,13.1-0.4,18-1.4
		C731.4,385.6,734.2,385.2,734.8,385.2z M703.3,348.2c0-4.4,1.5-8.2,4.6-11.2c3.1-3.1,6.8-4.6,11.1-4.6c4.4,0,8.2,1.6,11.3,4.7
		c3.1,3.1,4.7,6.8,4.7,11.2c0,4.3-1.6,8.1-4.7,11.2c-3.1,3.1-6.9,4.7-11.3,4.7c-4.3,0-8-1.6-11.1-4.7
		C704.8,356.3,703.3,352.6,703.3,348.2z"/>
	<path fill="#251F17" d="M794.9,327.7v140.8h9.1v6.6h-48.5v-6.6h9.8V336.4h-9.8v-6.6c9.1,0,18.1-0.4,27-1.1l8.8-1H794.9z"/>
	<path fill="#251F17" d="M855.6,327.7v140.8h9.1v6.6h-48.5v-6.6h9.8V336.4h-9.8v-6.6c9.1,0,18.1-0.4,27-1.1l8.8-1H855.6z"/>
	<path fill="#251F17" d="M930.8,425.3v-19.5c0-5.3-0.7-9-2-11.2c-1.3-2.2-4.6-3.3-10-3.3c-4.3,0-7.6,0.6-10,1.9
		c-2.4,1.3-3.6,2.6-3.6,3.8c0,0.9,0.8,2.2,2.5,3.9c1.7,1.7,2.6,3.9,2.6,6.5c0,3.7-1.4,7-4.2,9.7c-2.8,2.7-6.4,4.1-10.6,4.1
		c-3.9,0-7.3-1.3-10.1-3.8c-2.8-2.6-4.2-5.7-4.2-9.4c0-6.4,3.8-11.8,11.3-16.2c7.5-4.5,18-6.7,31.4-6.7c10.3,0,19,1.3,26,3.9
		c7,2.6,10.5,8.5,10.5,17.6v45.8c0,7.9,2.2,11.8,6.6,11.8c1.2,0,2.9-0.7,5.1-2.1l2.9,4.9c-6.1,7.2-13.3,10.7-21.4,10.7
		c-8.5,0-15.6-4.4-21.3-13.1c-9.5,8.8-20,13.1-31.6,13.1c-7.8,0-14-2-18.4-6.1c-4.5-4.1-6.7-9.2-6.7-15.3
		C875.8,437.1,894.1,426.8,930.8,425.3z M930.8,445.2V431c-9.8,0.4-16.6,1.9-20.4,4.6c-3.8,2.7-5.7,7.3-5.7,13.6
		c0,4.9,1.2,8.8,3.6,11.6c2.4,2.8,5.5,4.2,9.2,4.2c4.3,0,7.5-1.4,9.9-4.2C929.7,458.1,930.8,452.9,930.8,445.2z"/>
</g>
</svg>
