<?xml version="1.0" encoding="utf-8"?>
<!-- Generator: Adobe Illustrator 17.1.0, SVG Export Plug-In . SVG Version: 6.00 Build 0)  -->
<!DOCTYPE svg PUBLIC "-//W3C//DTD SVG 1.1//EN" "http://www.w3.org/Graphics/SVG/1.1/DTD/svg11.dtd">
<svg version="1.1" id="Layer_1" xmlns="http://www.w3.org/2000/svg" xmlns:xlink="http://www.w3.org/1999/xlink" x="0px" y="0px"
	 viewBox="-304 0 1506 600" enable-background="new -304 0 1506 600" xml:space="preserve">
<g>
	<path fill="#F8F8FF" d="M-290.7,220.1l9.4-1l6.6-49l-10.7,1l-4.6,12.7l-5.8,0l3-18.4h48l-2.3,18.4l-5.5,0.3l-0.9-13.1l-10.6-1
		l-6.6,49l10.2,1l-0.3,3.8h-30.2L-290.7,220.1z"/>
	<path fill="#F8F8FF" d="M-237.8,167.2l-4.7-1.6l0.6-3.2l12.9-1.6l2,1l-3.4,27c0.9-1.4,1.9-2.6,3.1-3.7c1.1-1.1,2.3-2.1,3.6-3
		c1.3-0.8,2.6-1.5,4.1-2c1.4-0.5,2.9-0.7,4.4-0.7c1.4,0,2.7,0.2,3.8,0.6s2.1,1,3,1.9c0.8,0.9,1.5,2.1,1.9,3.6
		c0.5,1.5,0.7,3.3,0.7,5.4c0,0.8-0.1,1.7-0.2,2.8s-0.3,2.3-0.5,3.5c-0.2,1.2-0.4,2.5-0.6,3.8c-0.2,1.3-0.4,2.4-0.6,3.5
		c-0.2,1-0.3,2-0.5,3c-0.2,1-0.4,2.1-0.5,3.1c-0.2,1-0.3,2-0.4,3c-0.1,1-0.2,1.9-0.2,2.7c0,0.9,0.1,1.6,0.3,1.9
		c0.2,0.4,0.5,0.6,0.9,0.6c0.2,0,0.4,0,0.6-0.1c0.2-0.1,0.5-0.2,0.8-0.3c0.3-0.2,0.6-0.4,1-0.6c0.4-0.3,0.8-0.6,1.3-1l1.1,2.4
		c-0.2,0.3-0.5,0.7-1.1,1.3c-0.6,0.6-1.3,1.2-2.2,1.8c-0.9,0.6-2,1.1-3.2,1.6c-1.2,0.5-2.5,0.7-3.9,0.7c-1.2,0-2.3-0.1-3.1-0.4
		c-0.8-0.3-1.5-0.7-1.9-1.2c-0.5-0.5-0.8-1.1-1-1.8c-0.2-0.7-0.3-1.5-0.2-2.4c0-0.7,0.1-1.5,0.2-2.5c0.1-0.9,0.3-1.9,0.4-3
		c0.2-1,0.3-2.1,0.6-3.2c0.2-1.1,0.4-2.2,0.6-3.3c0.2-1.1,0.4-2.2,0.6-3.5c0.2-1.3,0.4-2.6,0.6-3.9c0.2-1.3,0.4-2.6,0.5-4
		s0.2-2.6,0.2-3.7c0-1.2-0.1-2.2-0.3-2.9c-0.2-0.7-0.4-1.3-0.8-1.7c-0.3-0.4-0.7-0.7-1.2-0.8c-0.5-0.1-1-0.2-1.5-0.2
		c-0.9,0-1.8,0.2-2.8,0.7c-1,0.5-2,1.2-3,2s-2,1.9-2.9,3c-1,1.1-1.8,2.4-2.6,3.7l-3.6,28.1h-10.1L-237.8,167.2z"/>
	<path fill="#F8F8FF" d="M-199.5,207.4c0-2.5,0.3-5,0.9-7.4c0.6-2.4,1.3-4.6,2.4-6.7c1-2.1,2.2-4,3.6-5.7c1.4-1.7,3-3.2,4.8-4.4
		c1.7-1.2,3.6-2.2,5.7-2.8c2-0.7,4.1-1,6.4-1c2,0,3.8,0.2,5.2,0.7c1.5,0.5,2.7,1.2,3.6,2c1,0.9,1.7,1.9,2.1,3
		c0.5,1.2,0.7,2.4,0.7,3.8c0,2-0.4,3.9-1.2,5.5c-0.8,1.6-1.9,3.1-3.2,4.4c-1.4,1.3-2.9,2.4-4.6,3.3c-1.7,0.9-3.5,1.7-5.4,2.3
		c-1.8,0.6-3.6,1.1-5.4,1.4c-1.8,0.3-3.4,0.5-4.8,0.5c-0.1,1.6,0,3.1,0.3,4.6c0.3,1.5,0.7,2.8,1.3,3.9c0.6,1.1,1.4,2,2.4,2.7
		c1,0.7,2.2,1,3.6,1c2.5,0,4.7-0.5,6.7-1.6c2-1.1,3.8-2.5,5.4-4.1l2.1,3.6c-0.5,0.8-1.3,1.7-2.3,2.6c-1,1-2.2,1.9-3.7,2.7
		c-1.4,0.8-3.1,1.5-4.9,2.1c-1.8,0.6-3.8,0.8-5.9,0.8c-2.9,0-5.3-0.5-7.4-1.5c-2-1-3.7-2.3-5-3.9s-2.2-3.4-2.8-5.5
		C-199.2,211.8-199.5,209.6-199.5,207.4z M-188.5,202c0.9-0.1,1.9-0.2,2.9-0.5c1.1-0.3,2.1-0.6,3.2-1.1s2.1-1.1,3.1-1.7
		c1-0.7,1.9-1.5,2.7-2.4c0.8-0.9,1.4-1.9,1.9-3c0.5-1.1,0.7-2.3,0.6-3.5c-0.1-1.9-0.4-3.3-1.1-4.2c-0.7-0.9-1.6-1.4-2.9-1.4
		c-1.1,0-2.2,0.3-3.1,0.8c-0.9,0.6-1.8,1.3-2.5,2.2c-0.7,0.9-1.4,2-1.9,3.2c-0.5,1.2-1,2.5-1.4,3.8c-0.4,1.3-0.7,2.6-1,3.9
		C-188.3,199.6-188.4,200.9-188.5,202z"/>
	<path fill="#F8F8FF" d="M-133,243.7h-9.7l7.7-57.4l-4.4-1.9l0.7-3l12.5-2l1.9,0.9l-0.5,3.9c0.6-0.6,1.3-1.2,2.1-1.8
		c0.8-0.6,1.6-1.1,2.5-1.5c0.9-0.4,1.9-0.8,2.9-1.1c1-0.3,2.2-0.4,3.4-0.4c2.2,0,4.1,0.4,5.8,1.2c1.6,0.8,3,1.9,4.1,3.3
		c1.1,1.4,1.9,3.2,2.4,5.2c0.5,2,0.8,4.3,0.8,6.8c0,2.3-0.3,4.6-0.8,6.9c-0.5,2.3-1.3,4.5-2.3,6.6c-1,2.1-2.2,4.1-3.7,5.9
		s-3.1,3.4-4.9,4.8c-1.8,1.4-3.9,2.4-6.2,3.2c-2.3,0.8-4.7,1.2-7.2,1.2c-0.7,0-1.5,0-2.2-0.1c-0.8-0.1-1.5-0.2-2.2-0.3L-133,243.7z
		 M-129.6,218.8c0.7,0.4,1.4,0.6,2.2,0.7c0.8,0.1,1.7,0.2,2.6,0.2c1.6,0,3.1-0.3,4.3-1c1.3-0.7,2.4-1.6,3.4-2.7s1.8-2.5,2.6-4
		c0.7-1.5,1.3-3.2,1.8-4.9c0.5-1.7,0.8-3.5,1-5.4c0.2-1.8,0.3-3.6,0.3-5.4c0-1.6-0.1-3-0.4-4.4c-0.3-1.3-0.6-2.5-1.1-3.4
		c-0.5-0.9-1.1-1.7-1.9-2.2c-0.7-0.5-1.6-0.8-2.6-0.8c-0.9,0-1.7,0.1-2.5,0.4c-0.8,0.3-1.6,0.7-2.3,1.2c-0.7,0.5-1.4,1.1-1.9,1.7
		c-0.6,0.6-1.1,1.3-1.6,1.9L-129.6,218.8z"/>
	<path fill="#F8F8FF" d="M-96.6,207.4c0-2.5,0.3-5,0.9-7.4c0.6-2.4,1.3-4.6,2.4-6.7c1-2.1,2.2-4,3.6-5.7c1.4-1.7,3-3.2,4.8-4.4
		c1.7-1.2,3.6-2.2,5.7-2.8c2-0.7,4.1-1,6.4-1c2,0,3.8,0.2,5.2,0.7c1.5,0.5,2.7,1.2,3.6,2c1,0.9,1.7,1.9,2.1,3
		c0.5,1.2,0.7,2.4,0.7,3.8c0,2-0.4,3.9-1.2,5.5c-0.8,1.6-1.9,3.1-3.2,4.4c-1.4,1.3-2.9,2.4-4.6,3.3c-1.7,0.9-3.5,1.7-5.4,2.3
		c-1.8,0.6-3.6,1.1-5.4,1.4c-1.8,0.3-3.4,0.5-4.8,0.5c-0.1,1.6,0,3.1,0.3,4.6c0.3,1.5,0.7,2.8,1.3,3.9c0.6,1.1,1.4,2,2.4,2.7
		c1,0.7,2.2,1,3.6,1c2.5,0,4.7-0.5,6.7-1.6c2-1.1,3.8-2.5,5.4-4.1l2.1,3.6c-0.5,0.8-1.3,1.7-2.3,2.6c-1,1-2.2,1.9-3.7,2.7
		c-1.4,0.8-3.1,1.5-4.9,2.1c-1.8,0.6-3.8,0.8-5.9,0.8c-2.9,0-5.3-0.5-7.4-1.5c-2-1-3.7-2.3-5-3.9s-2.2-3.4-2.8-5.5
		C-96.4,211.8-96.7,209.6-96.6,207.4z M-85.7,202c0.9-0.1,1.9-0.2,2.9-0.5c1.1-0.3,2.1-0.6,3.2-1.1s2.1-1.1,3.1-1.7
		c1-0.7,1.9-1.5,2.7-2.4c0.8-0.9,1.4-1.9,1.9-3c0.5-1.1,0.7-2.3,0.6-3.5c-0.1-1.9-0.4-3.3-1.1-4.2c-0.7-0.9-1.6-1.4-2.9-1.4
		c-1.1,0-2.2,0.3-3.1,0.8c-0.9,0.6-1.8,1.3-2.5,2.2c-0.7,0.9-1.4,2-1.9,3.2c-0.5,1.2-1,2.5-1.4,3.8c-0.4,1.3-0.7,2.6-1,3.9
		C-85.4,199.6-85.6,200.9-85.7,202z"/>
	<path fill="#F8F8FF" d="M-52.1,187.1l-4-2.3l0.7-3.4l10.9-2l1.9,0.9v9.6c0.4-1.1,1-2.3,1.7-3.6c0.7-1.2,1.6-2.4,2.7-3.4
		c1-1,2.2-1.9,3.6-2.5c1.4-0.7,2.9-1,4.6-1c0.5,0,1,0.1,1.5,0.2c0.5,0.1,0.8,0.3,1,0.5l-2.2,10.8c-0.3-0.3-0.8-0.5-1.6-0.6
		c-0.8-0.2-1.6-0.2-2.4-0.2s-1.7,0.1-2.5,0.3c-0.9,0.2-1.7,0.5-2.5,1c-0.8,0.4-1.6,1-2.4,1.8c-0.8,0.7-1.5,1.6-2.2,2.7l-3.7,28.1
		H-57L-52.1,187.1z"/>
	<path fill="#F8F8FF" d="M-27.7,215.5c0.4,0.3,1,0.7,1.7,1.1c0.7,0.4,1.5,0.8,2.4,1.2c0.9,0.4,1.8,0.7,2.9,0.9
		c1.1,0.3,2.2,0.4,3.3,0.4c0.7,0,1.5-0.1,2.3-0.2c0.8-0.1,1.5-0.4,2.2-0.7c0.7-0.4,1.2-0.9,1.6-1.5c0.4-0.7,0.6-1.5,0.6-2.6
		c0-0.9-0.2-1.8-0.5-2.5c-0.4-0.8-0.8-1.5-1.5-2.2c-0.6-0.7-1.3-1.4-2.2-2c-0.8-0.6-1.7-1.3-2.7-2c-0.8-0.6-1.6-1.3-2.5-2.1
		c-0.9-0.8-1.7-1.8-2.5-2.9c-0.8-1.1-1.4-2.3-1.9-3.7c-0.5-1.4-0.8-2.9-0.8-4.5c0-2,0.4-3.8,1.3-5.4c0.9-1.6,2-2.9,3.5-4
		c1.5-1.1,3.2-1.9,5.2-2.4c2-0.5,4.1-0.8,6.3-0.8c1,0,2.1,0,3.1,0.1c1,0.1,2,0.2,2.9,0.3c0.9,0.1,1.7,0.3,2.4,0.5
		c0.7,0.2,1.2,0.3,1.5,0.5l-1.5,7.1c-0.2-0.2-0.5-0.5-1-0.9c-0.5-0.4-1.1-0.8-1.8-1.1c-0.7-0.4-1.5-0.7-2.4-0.9
		c-0.9-0.3-2-0.4-3.1-0.4c-0.8,0-1.6,0.1-2.4,0.2c-0.8,0.2-1.4,0.4-2,0.8c-0.6,0.4-1.1,0.9-1.5,1.5c-0.4,0.6-0.6,1.4-0.7,2.3
		c-0.1,0.9,0.1,1.7,0.3,2.5c0.3,0.8,0.7,1.6,1.3,2.3c0.6,0.7,1.3,1.5,2.1,2.2c0.8,0.7,1.7,1.5,2.7,2.2c1,0.8,2,1.6,3,2.5
		c1,0.9,1.9,1.9,2.6,2.9c0.8,1.1,1.4,2.3,1.9,3.6c0.5,1.3,0.7,2.8,0.7,4.4c0,2.2-0.5,4.1-1.4,5.7s-2.2,2.9-3.7,3.9
		c-1.6,1-3.3,1.8-5.4,2.3c-2,0.5-4.1,0.7-6.2,0.7c-1.2,0-2.4-0.1-3.6-0.2c-1.2-0.2-2.4-0.3-3.5-0.6c-1.1-0.2-2.1-0.5-2.9-0.8
		c-0.8-0.3-1.4-0.6-1.8-0.9L-27.7,215.5z"/>
	<path fill="#F8F8FF" d="M4.2,207.1c-0.1-3.6,0.4-7.1,1.5-10.4c1.1-3.3,2.6-6.3,4.6-8.8c2-2.6,4.4-4.6,7.2-6.1
		c2.8-1.5,6-2.3,9.5-2.3c2.6,0,4.8,0.4,6.8,1.2c2,0.8,3.6,1.9,5,3.4c1.4,1.5,2.4,3.3,3.1,5.5c0.7,2.2,1.1,4.7,1.2,7.4
		c0.1,2.4-0.1,4.7-0.6,7.1c-0.4,2.3-1.1,4.5-2,6.5c-0.9,2.1-2.1,3.9-3.4,5.7c-1.4,1.7-2.9,3.2-4.6,4.4c-1.7,1.2-3.6,2.2-5.6,2.9
		c-2.1,0.7-4.2,1.1-6.6,1.1c-2.6,0-4.8-0.4-6.8-1.2c-2-0.8-3.6-1.9-5-3.4c-1.4-1.5-2.4-3.3-3.1-5.5C4.7,212.4,4.3,209.9,4.2,207.1z
		 M21.8,219.9c1.3,0,2.5-0.3,3.5-1c1-0.7,1.9-1.6,2.7-2.7c0.8-1.1,1.5-2.5,2-4c0.5-1.5,1-3.1,1.3-4.8c0.3-1.7,0.6-3.4,0.7-5.2
		c0.1-1.8,0.2-3.5,0.2-5.1c-0.1-4.3-0.6-7.4-1.7-9.5c-1.1-2.1-2.7-3.1-4.9-3.1c-1.3,0-2.5,0.3-3.5,1c-1,0.7-2,1.6-2.8,2.7
		c-0.8,1.1-1.5,2.5-2.1,4c-0.6,1.5-1,3.1-1.4,4.8c-0.4,1.7-0.6,3.4-0.8,5.2c-0.2,1.7-0.2,3.4-0.2,5.1c0.1,4.3,0.7,7.5,1.7,9.6
		C17.8,218.8,19.4,219.9,21.8,219.9z"/>
	<path fill="#F8F8FF" d="M53,187.1l-3.9-2.3l0.6-3.4l11.8-2l1.9,0.9l-0.7,7.9c0.9-1.3,2-2.5,3.1-3.5c1.1-1.1,2.3-2,3.6-2.8
		c1.3-0.8,2.6-1.4,4-1.9c1.4-0.4,2.8-0.7,4.3-0.7c1.4,0,2.7,0.2,3.8,0.6s2.1,1,3,1.9c0.8,0.9,1.5,2.1,1.9,3.6
		c0.5,1.5,0.7,3.3,0.7,5.4c0,0.8-0.1,1.7-0.2,2.8c-0.1,1.1-0.3,2.3-0.5,3.5c-0.2,1.2-0.4,2.5-0.6,3.8c-0.2,1.3-0.4,2.4-0.6,3.5
		c-0.2,1-0.4,2-0.5,3s-0.4,2.1-0.5,3.1c-0.2,1-0.3,2-0.4,3c-0.1,1-0.2,1.9-0.2,2.7c0,0.9,0.1,1.6,0.3,1.9c0.2,0.4,0.5,0.6,0.9,0.6
		c0.4,0,0.8-0.1,1.3-0.3c0.5-0.2,1.2-0.7,2.1-1.4l1.1,2.4c-0.2,0.3-0.5,0.7-1.1,1.2s-1.2,1.1-2.1,1.7c-0.9,0.6-1.9,1.1-3,1.5
		c-1.2,0.4-2.4,0.7-3.8,0.7c-1.2,0-2.3-0.1-3.1-0.4c-0.8-0.3-1.5-0.7-1.9-1.2c-0.5-0.5-0.8-1.1-1-1.8c-0.2-0.7-0.3-1.5-0.2-2.3
		c0-0.7,0.1-1.5,0.2-2.5c0.1-0.9,0.3-1.9,0.4-3c0.2-1,0.4-2.1,0.6-3.2c0.2-1.1,0.4-2.2,0.6-3.3c0.2-1.1,0.4-2.2,0.6-3.5
		c0.2-1.3,0.5-2.6,0.6-3.9c0.2-1.3,0.3-2.6,0.5-4c0.1-1.3,0.2-2.6,0.2-3.7c0-1.2-0.1-2.2-0.2-2.9c-0.2-0.7-0.4-1.3-0.7-1.7
		c-0.3-0.4-0.7-0.7-1.2-0.8c-0.5-0.1-1-0.2-1.6-0.2c-0.8,0-1.8,0.2-2.7,0.7c-1,0.5-2,1.1-2.9,1.9c-1,0.8-1.9,1.8-2.9,2.9
		c-0.9,1.1-1.8,2.3-2.6,3.6L58,223.9h-9.9L53,187.1z"/>
	<path fill="#F8F8FF" d="M93.4,208.3c0-2.2,0.2-4.5,0.7-6.8c0.5-2.3,1.2-4.5,2.2-6.6c1-2.1,2.2-4.1,3.6-6s3.1-3.5,5-4.9
		c1.9-1.4,4-2.5,6.3-3.3c2.3-0.8,4.9-1.2,7.6-1.2c0.7,0,1.4,0,2.1,0.1c0.7,0.1,1.5,0.2,2.2,0.3s1.4,0.3,2.1,0.5s1.3,0.4,1.9,0.6
		l5.2-1.5l-5,36.5c-0.1,1,0,1.8,0.2,2.2c0.3,0.4,0.7,0.7,1.1,0.7c0.4,0,0.8-0.1,1.3-0.3c0.5-0.2,1.2-0.7,2.1-1.4l1.1,2.4
		c-0.2,0.3-0.5,0.7-1.1,1.3c-0.5,0.6-1.2,1.1-2.1,1.7c-0.8,0.6-1.8,1.1-2.9,1.5c-1.1,0.4-2.3,0.6-3.6,0.6c-1.8,0-3.2-0.4-4.2-1.3
		c-1-0.8-1.5-2.1-1.5-3.9l-0.1-0.1c-0.6,0.7-1.3,1.3-2.1,2c-0.8,0.6-1.7,1.2-2.7,1.7c-1,0.5-2,0.9-3.2,1.2c-1.1,0.3-2.3,0.4-3.6,0.4
		c-2.3,0-4.2-0.4-5.9-1.3c-1.6-0.8-3-2-4.1-3.5c-1.1-1.5-1.8-3.2-2.4-5.2C93.6,212.8,93.4,210.6,93.4,208.3z M109.8,218.6
		c0.8,0,1.6-0.1,2.3-0.4c0.7-0.2,1.4-0.6,2.1-1c0.7-0.4,1.3-0.9,1.9-1.4c0.6-0.5,1.1-1.1,1.6-1.6l3.9-29.2c-1.1-0.4-2.4-0.6-3.9-0.6
		c-1.7,0-3.2,0.4-4.5,1.1c-1.3,0.7-2.5,1.6-3.6,2.8s-1.9,2.5-2.7,4.1c-0.7,1.6-1.3,3.2-1.8,4.9c-0.5,1.7-0.8,3.5-1,5.2
		c-0.2,1.8-0.3,3.5-0.3,5.1c0,3.5,0.5,6.2,1.6,8.1C106.5,217.6,108,218.6,109.8,218.6z"/>
	<path fill="#F8F8FF" d="M138.6,219.5c0-0.4,0-0.9,0.1-1.5c0.1-0.6,0.1-1.1,0.2-1.5l6.8-49.3l-4.9-1.6l0.8-3.2l12.8-1.6l1.9,1
		l-7.4,54.1c-0.1,0.9-0.1,1.6,0.1,2.1c0.2,0.5,0.5,0.8,1,0.8c0.4,0,0.8-0.1,1.4-0.4s1.4-0.8,2.4-1.7l1.1,2.4
		c-0.2,0.3-0.5,0.7-1.1,1.3c-0.6,0.6-1.3,1.2-2.1,1.9c-0.9,0.6-1.8,1.2-3,1.6c-1.1,0.5-2.4,0.7-3.7,0.7c-0.9,0-1.7-0.1-2.5-0.3
		c-0.8-0.2-1.4-0.5-2-0.9c-0.6-0.4-1-0.9-1.3-1.6C138.8,221.2,138.6,220.4,138.6,219.5z"/>
	<path fill="#F8F8FF" d="M187.4,167.2l-3.8-1.6l0.8-3.2l11.5-1.5l2,1l-3,22.5c0.6-0.6,1.3-1.3,2.1-1.9c0.8-0.6,1.6-1.1,2.6-1.6
		c0.9-0.5,1.9-0.8,3-1.1c1.1-0.3,2.2-0.4,3.5-0.4c2.2,0,4.1,0.4,5.8,1.2c1.6,0.8,3,1.9,4.1,3.3c1.1,1.4,1.9,3.2,2.4,5.2
		c0.5,2,0.8,4.3,0.8,6.8c0,2.3-0.3,4.6-0.8,6.9c-0.5,2.3-1.3,4.5-2.3,6.6c-1,2.1-2.2,4.1-3.7,5.9s-3.1,3.4-5,4.8
		c-1.9,1.4-3.9,2.4-6.2,3.2c-2.3,0.8-4.7,1.2-7.3,1.2c-0.8,0-1.6-0.1-2.4-0.2c-0.8-0.1-1.6-0.2-2.5-0.4c-0.8-0.2-1.6-0.3-2.3-0.5
		c-0.7-0.2-1.4-0.4-2-0.6l-4.7,1.7L187.4,167.2z M190.4,218.8c0.7,0.3,1.4,0.5,2.1,0.6c0.8,0.1,1.6,0.2,2.5,0.2c1.6,0,3.1-0.3,4.4-1
		c1.3-0.7,2.5-1.6,3.5-2.7c1-1.1,1.9-2.5,2.6-4c0.7-1.5,1.3-3.2,1.8-4.9c0.5-1.7,0.8-3.5,1.1-5.4c0.2-1.8,0.3-3.6,0.3-5.4
		c0-1.6-0.1-3-0.4-4.4c-0.3-1.3-0.6-2.5-1.1-3.4c-0.5-0.9-1.1-1.7-1.9-2.2c-0.7-0.5-1.6-0.8-2.6-0.8c-0.9,0-1.8,0.2-2.6,0.5
		s-1.6,0.7-2.4,1.2c-0.7,0.5-1.4,1.1-2.1,1.7c-0.6,0.6-1.2,1.3-1.7,1.9L190.4,218.8z"/>
	<path fill="#F8F8FF" d="M224.2,219.5c0-0.4,0-0.9,0.1-1.5c0.1-0.6,0.1-1.1,0.2-1.5l6.8-49.3l-4.9-1.6l0.8-3.2l12.8-1.6l1.9,1
		l-7.4,54.1c-0.1,0.9-0.1,1.6,0.1,2.1c0.2,0.5,0.5,0.8,1,0.8c0.4,0,0.8-0.1,1.4-0.4s1.4-0.8,2.4-1.7l1.1,2.4
		c-0.2,0.3-0.5,0.7-1.1,1.3c-0.6,0.6-1.3,1.2-2.1,1.9c-0.9,0.6-1.8,1.2-3,1.6c-1.1,0.5-2.4,0.7-3.7,0.7c-0.9,0-1.7-0.1-2.5-0.3
		c-0.8-0.2-1.4-0.5-2-0.9c-0.6-0.4-1-0.9-1.3-1.6C224.3,221.2,224.2,220.4,224.2,219.5z"/>
	<path fill="#F8F8FF" d="M244.5,207.1c-0.1-3.6,0.4-7.1,1.5-10.4c1.1-3.3,2.6-6.3,4.6-8.8c2-2.6,4.4-4.6,7.2-6.1
		c2.8-1.5,6-2.3,9.5-2.3c2.6,0,4.8,0.4,6.8,1.2c2,0.8,3.6,1.9,5,3.4c1.4,1.5,2.4,3.3,3.1,5.5c0.7,2.2,1.1,4.7,1.2,7.4
		c0.1,2.4-0.1,4.7-0.6,7.1c-0.4,2.3-1.1,4.5-2,6.5c-0.9,2.1-2.1,3.9-3.4,5.7c-1.4,1.7-2.9,3.2-4.6,4.4c-1.7,1.2-3.6,2.2-5.6,2.9
		c-2.1,0.7-4.2,1.1-6.6,1.1c-2.6,0-4.8-0.4-6.8-1.2c-2-0.8-3.6-1.9-5-3.4c-1.4-1.5-2.4-3.3-3.1-5.5
		C244.9,212.4,244.5,209.9,244.5,207.1z M262,219.9c1.3,0,2.5-0.3,3.5-1c1-0.7,1.9-1.6,2.7-2.7c0.8-1.1,1.5-2.5,2-4
		c0.5-1.5,1-3.1,1.3-4.8c0.3-1.7,0.6-3.4,0.7-5.2c0.1-1.8,0.2-3.5,0.2-5.1c-0.1-4.3-0.6-7.4-1.7-9.5c-1.1-2.1-2.7-3.1-4.9-3.1
		c-1.3,0-2.5,0.3-3.5,1c-1,0.7-2,1.6-2.8,2.7c-0.8,1.1-1.5,2.5-2.1,4c-0.6,1.5-1,3.1-1.4,4.8c-0.4,1.7-0.6,3.4-0.8,5.2
		c-0.2,1.7-0.2,3.4-0.2,5.1c0.1,4.3,0.7,7.5,1.7,9.6C258,218.8,259.7,219.9,262,219.9z"/>
	<path fill="#F8F8FF" d="M290.9,234.3c0.4,0.2,0.9,0.5,1.6,0.8c0.7,0.3,1.6,0.6,2.5,1c0.9,0.3,1.9,0.6,3,0.8
		c1.1,0.2,2.1,0.3,3.2,0.3c1.5,0,2.7-0.1,3.7-0.3c1-0.2,1.9-0.6,2.6-1.1c0.7-0.6,1.2-1.4,1.6-2.4c0.4-1,0.7-2.4,1-4l1.3-9.3
		c-0.6,0.6-1.3,1.2-2.1,1.7s-1.6,1-2.5,1.4c-0.9,0.4-1.9,0.8-2.9,1c-1,0.2-2.1,0.4-3.3,0.4c-2.3,0-4.2-0.4-5.9-1.3
		c-1.6-0.8-3-2-4.1-3.5c-1.1-1.5-1.8-3.2-2.4-5.2c-0.5-2-0.8-4.1-0.8-6.4c0-2.2,0.2-4.5,0.7-6.8c0.5-2.3,1.2-4.5,2.2-6.6
		c1-2.1,2.2-4.1,3.6-6s3.1-3.5,5-4.9c1.9-1.4,4-2.5,6.3-3.3c2.3-0.8,4.9-1.2,7.6-1.2c1.6,0,3.2,0.2,4.8,0.5c1.6,0.4,2.9,0.7,4.1,1.1
		l5.4-1.7l-6.9,47.4c-0.3,2.1-0.9,4-1.6,5.7c-0.8,1.7-1.8,3.1-2.9,4.3c-1.1,1.2-2.4,2.3-3.8,3.1c-1.4,0.9-2.9,1.5-4.4,2.1
		c-1.5,0.5-3.1,0.9-4.7,1.1c-1.6,0.2-3.1,0.3-4.6,0.3c-0.9,0-1.8,0-2.7-0.1c-0.9-0.1-1.8-0.2-2.7-0.4s-1.6-0.3-2.3-0.5
		s-1.2-0.4-1.6-0.5L290.9,234.3z M303.9,218.6c0.8,0,1.7-0.1,2.4-0.4c0.8-0.3,1.5-0.6,2.3-1.1c0.7-0.4,1.4-1,2-1.5
		c0.6-0.6,1.2-1.2,1.7-1.8l4.2-28.5c-0.7-0.3-1.4-0.5-2.1-0.6c-0.8-0.1-1.6-0.2-2.4-0.2c-1.7,0-3.2,0.4-4.5,1.1
		c-1.3,0.7-2.5,1.6-3.6,2.8c-1,1.2-1.9,2.6-2.7,4.1c-0.7,1.6-1.3,3.2-1.8,4.9c-0.5,1.7-0.8,3.5-1,5.3c-0.2,1.8-0.3,3.5-0.3,5.1
		c0,3.5,0.5,6.1,1.6,8C300.6,217.7,302.1,218.6,303.9,218.6z"/>
	<path fill="#F8F8FF" d="M351.4,207.1c-0.1-3.6,0.4-7.1,1.5-10.4c1.1-3.3,2.6-6.3,4.6-8.8c2-2.6,4.4-4.6,7.2-6.1
		c2.8-1.5,6-2.3,9.5-2.3c2.6,0,4.8,0.4,6.8,1.2c2,0.8,3.6,1.9,5,3.4c1.4,1.5,2.4,3.3,3.1,5.5c0.7,2.2,1.1,4.7,1.2,7.4
		c0.1,2.4-0.1,4.7-0.6,7.1c-0.4,2.3-1.1,4.5-2,6.5c-0.9,2.1-2.1,3.9-3.4,5.7c-1.4,1.7-2.9,3.2-4.6,4.4c-1.7,1.2-3.6,2.2-5.6,2.9
		c-2.1,0.7-4.2,1.1-6.6,1.1c-2.6,0-4.8-0.4-6.8-1.2c-2-0.8-3.6-1.9-5-3.4c-1.4-1.5-2.4-3.3-3.1-5.5
		C351.9,212.4,351.5,209.9,351.4,207.1z M369,219.9c1.3,0,2.5-0.3,3.5-1c1-0.7,1.9-1.6,2.7-2.7c0.8-1.1,1.5-2.5,2-4
		c0.5-1.5,1-3.1,1.3-4.8c0.3-1.7,0.6-3.4,0.7-5.2c0.1-1.8,0.2-3.5,0.2-5.1c-0.1-4.3-0.6-7.4-1.7-9.5c-1.1-2.1-2.7-3.1-4.9-3.1
		c-1.3,0-2.5,0.3-3.5,1c-1,0.7-2,1.6-2.8,2.7c-0.8,1.1-1.5,2.5-2.1,4c-0.6,1.5-1,3.1-1.4,4.8c-0.4,1.7-0.6,3.4-0.8,5.2
		c-0.2,1.7-0.2,3.4-0.2,5.1c0.1,4.3,0.7,7.5,1.7,9.6C365,218.8,366.7,219.9,369,219.9z"/>
	<path fill="#F8F8FF" d="M400.3,185.7h-5l0.7-3.4l5.4-2.4l0.6-3.3c0.4-2.4,1.1-4.6,2.1-6.6s2.2-3.8,3.7-5.2c1.5-1.5,3.2-2.6,5-3.5
		c1.9-0.8,3.9-1.3,6.1-1.3c1,0,2.1,0.1,3.2,0.2c1.1,0.1,2.2,0.4,3.2,0.8l-2.3,6.6c-0.2-0.2-0.5-0.4-0.8-0.6
		c-0.3-0.2-0.7-0.4-1.1-0.6c-0.4-0.2-0.9-0.3-1.5-0.5c-0.5-0.1-1.2-0.2-1.8-0.2c-1,0-1.8,0.2-2.5,0.6c-0.7,0.4-1.2,1-1.7,1.8
		c-0.4,0.8-0.8,1.8-1.1,2.9c-0.3,1.2-0.5,2.5-0.8,4.1l-0.6,4.5h8.9l-0.7,6h-9l-4.8,39.1c-0.3,2.6-0.9,5-1.8,7.3s-2,4.2-3.4,5.9
		c-1.4,1.7-3.1,3-5,4c-1.9,1-4.1,1.5-6.5,1.5c-0.7,0-1.4,0-2-0.1c-0.7,0-1.3-0.1-1.9-0.2c-0.6-0.1-1.1-0.1-1.6-0.2s-0.9-0.2-1.2-0.2
		l2.1-6.7c0.1,0.1,0.4,0.2,0.9,0.4s1,0.4,1.7,0.6c0.6,0.2,1.3,0.4,1.9,0.5c0.6,0.1,1.2,0.2,1.7,0.2c1.2,0,2.3-0.7,3-2.2
		c0.8-1.5,1.3-3.5,1.7-6.1L400.3,185.7z"/>
	<path fill="#F8F8FF" d="M-291.9,386.7l11.8-2.8v-95.2l-11.5-1.5v-10.3h22.9c2.4,0,4.7-0.1,7-0.2c2.3-0.1,4.5-0.2,6.8-0.4
		c2.2-0.2,4.5-0.3,6.8-0.4c2.3-0.1,4.7-0.2,7.1-0.2c10.2,0,19,1.4,26.4,4.1c7.4,2.7,13.4,6.6,18.2,11.6c4.8,5,8.3,11,10.6,18
		c2.3,7,3.4,14.8,3.4,23.4c0,10-1.5,19-4.6,26.9c-3.1,7.9-7.3,14.5-12.7,20s-11.9,9.6-19.3,12.5c-7.4,2.9-15.6,4.2-24.4,4.1
		c-1.9,0-3.9-0.1-6-0.2c-2.1-0.1-4.3-0.2-6.4-0.3c-2.2-0.1-4.3-0.2-6.5-0.3s-4.2-0.1-6.1-0.1c-3.9,0-7.8,0-11.8,0
		c-3.9,0-7.8,0-11.8,0V386.7z M-258,383.4c4.8,2.1,11.3,2.9,19.4,2.4c4.6-0.3,8.9-1.5,12.9-3.7c4-2.2,7.6-5.4,10.6-9.5
		c3-4.1,5.4-9.1,7.1-14.9c1.7-5.8,2.6-12.5,2.6-19.9c0-8.7-0.9-16.2-2.6-22.6c-1.7-6.4-4.2-11.8-7.5-16c-3.3-4.3-7.3-7.4-12.2-9.5
		c-4.8-2.1-10.3-3.1-16.5-3.1c-3.1,0.1-5.8,0.2-8.1,0.6c-2.3,0.3-4.3,0.8-5.9,1.3V383.4z"/>
	<path fill="#F8F8FF" d="M-172.5,386.9l10.7-1.8v-55.4l-10.6-6.7v-7.5l24.8-7.4l4.7,1.5V323c0.8-2.1,2.1-4.1,4-5.9
		c1.9-1.8,4-3.4,6.3-4.8c2.3-1.3,4.6-2.4,7.1-3.2c2.4-0.8,4.6-1.2,6.5-1.2c1.7,0,3.3,0.1,4.8,0.2c1.5,0.1,2.5,0.3,3.1,0.6v20.5
		c-1.5-1-3.4-1.7-5.8-2.3c-2.4-0.6-4.9-0.9-7.5-0.9c-2.1,0-4,0.1-5.7,0.4c-1.6,0.3-3.1,0.6-4.4,1c-1.3,0.4-2.4,0.8-3.2,1.3
		c-0.9,0.5-1.6,0.9-2.3,1.3v54.6l19.5,2.3v8.7h-52V386.9z"/>
	<path fill="#F8F8FF" d="M-104.4,385.4c0-2.1,0.5-4,1.4-5.8c0.9-1.8,2.1-3.3,3.6-4.7s3.1-2.4,4.9-3.1c1.8-0.7,3.6-1.1,5.4-1.1
		c2.2,0,4.2,0.3,5.8,1c1.7,0.7,3,1.6,4.1,2.7c1.1,1.1,1.9,2.5,2.4,4c0.5,1.5,0.8,3.1,0.8,4.9c0,2.2-0.4,4.2-1.3,5.9
		c-0.9,1.8-2.1,3.3-3.5,4.5c-1.5,1.3-3.1,2.2-5,2.9c-1.9,0.7-3.7,1-5.6,1c-1.6,0-3.2-0.3-4.8-0.8c-1.6-0.5-2.9-1.3-4.1-2.4
		c-1.2-1-2.2-2.3-2.9-3.8C-104.1,389.1-104.4,387.4-104.4,385.4z"/>
	<path fill="#F8F8FF" d="M-3.8,399.6c0.8-2.2,1.4-4.6,1.9-7c0.5-2.4,0.9-5.1,1.1-7.9c0.3-2.8,0.4-5.9,0.5-9.1
		c0.1-3.3,0.2-6.9,0.2-10.8v-76l-11.9-1.5v-10.3h45.6v10.3L22,288.8v65.4c0,4.1-0.1,8.2-0.2,12.2c-0.1,4-0.3,7.8-0.5,11.5
		c-0.2,3.6-0.6,6.9-1,10c-0.4,3-1,5.6-1.6,7.8c-1.6,4.7-3.9,8.9-7,12.5c-3.1,3.6-6.6,6.6-10.4,9.1c-3.8,2.5-7.8,4.4-12,5.8
		c-4.2,1.4-8.1,2.2-11.8,2.5l-4.7-6.7c2.6-0.9,5.2-2,7.6-3.2c2.4-1.2,4.6-2.6,6.6-4.2c2-1.6,3.8-3.4,5.4-5.3
		C-6.2,404.2-4.9,402-3.8,399.6z"/>
	<path fill="#F8F8FF" d="M38.7,352c0.1-7.4,1.4-13.9,3.9-19.4c2.5-5.6,5.7-10.2,9.8-13.8c4.1-3.7,8.7-6.4,14-8.3
		c5.3-1.9,10.8-2.8,16.5-2.9c6.7,0,12.6,0.9,17.7,2.9c5.1,2,9.5,4.9,13,8.7c3.5,3.8,6.2,8.4,8,13.8c1.8,5.4,2.7,11.4,2.7,18.2
		c-0.1,7.5-1.2,14.1-3.6,19.9c-2.3,5.8-5.5,10.6-9.5,14.5c-4,3.9-8.6,6.9-13.8,8.9c-5.2,2-10.8,3.1-16.6,3.1
		c-7.6,0-14.2-1.2-19.5-3.6c-5.4-2.4-9.7-5.7-13.1-9.9c-3.4-4.2-5.8-9-7.3-14.5C39.3,363.9,38.6,358.1,38.7,352z M81.5,387.4
		c3.9,0.1,7.1-0.9,9.6-2.8c2.5-1.9,4.6-4.4,6-7.6c1.5-3.2,2.5-7,3.1-11.3c0.6-4.3,0.9-8.9,0.9-13.7c0-4.3-0.3-8.5-0.9-12.6
		c-0.6-4.1-1.6-7.8-3.1-11.1c-1.5-3.3-3.4-5.9-5.9-7.9c-2.5-2-5.5-3-9.2-3.1c-3.9,0-7.2,0.8-9.7,2.6c-2.6,1.8-4.7,4.2-6.2,7.2
		c-1.6,3-2.7,6.6-3.3,10.6c-0.6,4-1,8.3-1,12.8c0,2.7,0.1,5.4,0.4,8.3c0.3,2.9,0.8,5.6,1.4,8.4c0.7,2.7,1.5,5.3,2.5,7.8
		c1,2.4,2.3,4.6,3.7,6.5c1.5,1.9,3.1,3.3,5.1,4.4C76.9,386.9,79,387.4,81.5,387.4z"/>
	<path fill="#F8F8FF" d="M130.9,386.9L142,385v-97.7l-11.5-3.7v-8.9l29.1-3.5l4.1,1.5l-0.1,36l-1.1,10.2c2.3-2,4.7-3.7,7.3-5
		c2.5-1.4,5.1-2.5,7.7-3.4c2.6-0.9,5.1-1.5,7.5-1.9c2.4-0.4,4.6-0.6,6.6-0.6c5.4,0,9.7,0.9,13,2.6c3.3,1.7,5.9,4.3,7.8,7.7
		c1.9,3.4,3.1,7.6,3.7,12.6c0.6,5,0.9,10.9,0.8,17.4V385l10.9,1.9v8.7l-44.4-0.1v-8.6l11.8-2v-31.6c0-4.8-0.1-9.1-0.4-12.9
		c-0.3-3.8-0.9-7.1-1.9-9.7c-1-2.6-2.6-4.7-4.7-6.1c-2.1-1.4-5-2.1-8.8-2.1c-2.8,0-5.5,0.3-8.2,1c-2.7,0.7-5.3,1.9-7.7,3.7V385
		l9.1,1.9v8.7h-42V386.9z"/>
	<path fill="#F8F8FF" d="M238.2,386.9l9.9-1.8v-55.5l-10.6-6.7v-7.5l24.8-7.4l4.7,1.5v11.1c1.9-1.7,4.1-3.4,6.5-4.9
		c2.5-1.5,5.1-2.9,7.9-4c2.8-1.1,5.6-2,8.5-2.7c2.9-0.7,5.8-1,8.6-1.1c4.8-0.1,8.8,0.6,12,2.1c3.2,1.5,5.8,3.6,7.8,6.6
		c2,2.9,3.4,6.6,4.2,11c0.8,4.4,1.2,9.5,1.2,15.4v42l11.4,1.8v8.7h-44.3v-8.7l11.2-2v-38.7c0-4.3-0.2-8-0.6-11
		c-0.4-3-1.2-5.4-2.4-7.3c-1.2-1.9-2.9-3.2-5-4c-2.1-0.8-5-1.2-8.5-1.1c-1,0.1-2.1,0.2-3.4,0.4c-1.3,0.2-2.7,0.6-4.1,1
		c-1.4,0.5-2.9,1-4.3,1.7c-1.4,0.7-2.8,1.4-4,2.3V385l10.2,1.9v8.7h-41.9V386.9z"/>
	<path fill="#F8F8FF" d="M387.1,386.7l12.9-2.9v-95l-13.1-1.6v-10.3h47.9v10.3l-12.8,1.5v41.7h51.1v-41.7l-12.8-1.5v-10.3H508v10.3
		l-12.9,1.5v95.2l13.7,2.9v8.8h-49.2v-8.8l13.6-2.8v-41.4H422v41.3l13.6,2.8v8.9h-48.5V386.7z"/>
	<path fill="#F8F8FF" d="M523.5,385.4c0-2.1,0.5-4,1.4-5.8c0.9-1.8,2.1-3.3,3.6-4.7c1.5-1.3,3.1-2.4,4.9-3.1
		c1.8-0.7,3.6-1.1,5.4-1.1c2.2,0,4.2,0.3,5.8,1c1.7,0.7,3,1.6,4.1,2.7c1.1,1.1,1.9,2.5,2.4,4c0.5,1.5,0.8,3.1,0.8,4.9
		c0,2.2-0.4,4.2-1.3,5.9c-0.9,1.8-2.1,3.3-3.5,4.5c-1.5,1.3-3.1,2.2-5,2.9c-1.9,0.7-3.7,1-5.6,1c-1.6,0-3.2-0.3-4.8-0.8
		c-1.6-0.5-2.9-1.3-4.1-2.4c-1.2-1-2.2-2.3-2.9-3.8C523.9,389.1,523.5,387.4,523.5,385.4z"/>
	<path fill="#F8F8FF" d="M618.9,288.7l-9.7-1.5v-10.4H654v10.3l-11.4,1.5l20.5,74.1c0.6,2.3,1.1,4.7,1.7,7c0.6,2.3,1.1,4.7,1.8,7
		l3.5-13.7l15.2-61.6l-3.6-13l-10.9-1.4v-10.4h46v10.3l-12.8,1.6l17.8,74.7l3.1,13.8l3.6-15.1l18.3-73.5l-12.2-1.5v-10.4h41.4v10.4
		l-11.4,1.3L732.3,397h-20.1l-19.4-68.7l-19,68.6h-19.3L618.9,288.7z"/>
	<path fill="#F8F8FF" d="M771.4,367.8c0.6-3.2,1.8-6.1,3.8-8.5c2-2.5,4.4-4.6,7.3-6.5c2.9-1.8,6-3.4,9.5-4.6c3.5-1.2,6.9-2.2,10.4-3
		c3.5-0.7,6.8-1.3,10.1-1.6c3.3-0.3,6.1-0.5,8.6-0.5v-2.9c0-4-0.4-7.3-1.3-9.9c-0.9-2.5-2.1-4.5-3.7-6c-1.6-1.5-3.5-2.4-5.8-2.9
		c-2.2-0.5-4.7-0.8-7.5-0.8c-2.5,0-5,0.2-7.4,0.7c-2.4,0.4-4.6,1-6.7,1.6c-2.1,0.6-4,1.3-5.7,2c-1.7,0.7-3.1,1.4-4.2,2l-4.1-9.7
		c1.3-1.1,3.1-2.2,5.5-3.2c2.4-1.1,5.1-2.1,8.2-3c3.1-0.9,6.5-1.6,10.2-2.2c3.7-0.6,7.5-0.8,11.4-0.8c4.6,0,9,0.4,13,1.3
		c4,0.9,7.5,2.5,10.5,4.7c3,2.3,5.3,5.3,7,9.2s2.5,8.8,2.5,14.7l-0.1,48.9h9.9v6.8c-1.1,0.7-2.4,1.3-3.8,1.8s-2.9,0.9-4.5,1.2
		c-1.6,0.3-3.1,0.5-4.7,0.6c-1.6,0.1-3.1,0.2-4.5,0.2c-1,0-2.1-0.1-3.4-0.3c-1.3-0.2-2.6-0.6-3.8-1.1s-2.3-1.5-3.1-2.6
		c-0.9-1.1-1.3-2.7-1.3-4.6v-0.7c-2.6,2.6-5.8,4.8-9.6,6.6c-3.8,1.8-8.5,2.7-13.9,2.7c-5.5,0-10.2-0.8-14.1-2.4
		c-3.9-1.6-7.1-3.8-9.4-6.6c-2.4-2.8-3.9-5.9-4.7-9.5C770.8,375.5,770.7,371.8,771.4,367.8z M792.8,370.5c0,5.5,1.5,9.3,4.4,11.6
		c3,2.3,7.2,3.2,12.8,2.8c2.2-0.2,4.2-0.8,6-1.8c1.8-1,3.5-2.1,4.9-3.2c0-4.5,0-8.9,0-13.4c0-4.4,0-8.9,0-13.4
		c-1.8,0-3.8,0.1-5.9,0.3c-2.1,0.2-4.2,0.6-6.3,1.1c-2.1,0.5-4.1,1.2-6,2.1c-1.9,0.9-3.6,1.9-5.1,3.2c-1.5,1.3-2.7,2.8-3.6,4.5
		C793.3,366.1,792.8,368.2,792.8,370.5z"/>
	<path fill="#F8F8FF" d="M865.7,322h-11.6v-7.4c1.7-0.4,3.3-0.7,4.7-1c1.4-0.3,2.6-0.7,3.7-1.1c1.1-0.4,2.1-1,3-1.6s1.7-1.4,2.4-2.4
		c0.6-0.8,1.3-1.8,1.9-3.2c0.7-1.4,1.4-2.9,2.1-4.6c0.7-1.7,1.3-3.5,2-5.4c0.6-1.9,1.2-3.7,1.7-5.6h10.5v20.4h25.9V322h-25.2v32.5
		c0,6.4,0.1,11.6,0.3,15.4c0.2,3.9,0.7,6.9,1.4,8.9c0.7,2.1,1.6,3.5,2.8,4.1c1.2,0.7,2.7,1,4.7,1c1.1,0,2.4-0.1,3.8-0.3
		c1.4-0.2,2.8-0.4,4.1-0.7c1.3-0.3,2.6-0.6,3.7-1c1.1-0.4,2.1-0.8,2.7-1.2l3.3,7.9c-1.2,1.3-2.8,2.4-4.8,3.5s-4.3,2-6.8,2.8
		s-5.2,1.4-7.9,1.8c-2.8,0.4-5.5,0.6-8.2,0.6c-3.7,0-6.9-0.5-9.4-1.5c-2.5-1-4.6-2.5-6.2-4.6c-1.6-2.1-2.7-4.7-3.4-7.9
		c-0.7-3.2-1.1-7-1.1-11.5V322z"/>
	<path fill="#F8F8FF" d="M924.2,371.7h10.1l4.1,8.8c0.9,0.9,1.9,1.7,2.9,2.6c1,0.8,2.1,1.6,3.4,2.3c1.2,0.7,2.6,1.3,4.1,1.8
		c1.5,0.5,3.2,0.8,5,0.9c5.1,0.3,9.1-0.6,12-2.7c2.9-2,4.4-5,4.4-9c0-1.8-0.6-3.4-1.8-4.8c-1.2-1.4-2.7-2.7-4.6-3.9
		s-4.1-2.4-6.6-3.6c-2.5-1.1-5.1-2.3-7.7-3.6c-3.4-1.6-6.6-3.3-9.7-5.1c-3.1-1.8-5.9-3.9-8.3-6.2c-2.4-2.3-4.3-4.9-5.7-7.8
		c-1.4-2.9-2.1-6.2-2-10c0-2.9,0.6-5.4,1.6-7.7c1-2.3,2.4-4.3,4.2-6s3.7-3.3,6-4.5c2.3-1.2,4.6-2.3,7.1-3.1c2.5-0.8,5-1.4,7.6-1.8
		c2.6-0.4,5.1-0.6,7.4-0.7c2.8,0,5.5,0.1,8.1,0.3c2.7,0.3,5.2,0.6,7.6,1.1c2.4,0.5,4.6,1,6.7,1.6c2,0.6,3.7,1.2,5.1,1.8v19h-10.4
		l-3.9-9.1c-1.4-1.5-3.1-2.9-5-4s-4.4-1.7-7.1-1.8c-1.8,0-3.6,0.2-5.2,0.5c-1.7,0.4-3.1,0.9-4.4,1.7c-1.3,0.8-2.3,1.8-3,3
		c-0.7,1.2-1.1,2.6-1.1,4.3c-0.1,1.9,0.4,3.7,1.3,5.2c0.9,1.6,2.2,3,3.7,4.3c1.6,1.3,3.4,2.5,5.5,3.6c2.1,1.1,4.3,2.2,6.6,3.4
		c3.3,1.5,6.7,3.1,10.1,4.7c3.4,1.6,6.5,3.4,9.2,5.5c2.8,2.1,5,4.6,6.8,7.5c1.8,2.9,2.6,6.3,2.6,10.4c0,4.7-1,8.8-3,12.2
		c-2,3.4-4.7,6.2-8.1,8.3c-3.4,2.2-7.4,3.8-12,4.8s-9.4,1.6-14.6,1.6c-2.4,0-4.9-0.1-7.5-0.4c-2.6-0.3-5.1-0.7-7.6-1.2
		c-2.5-0.5-5-1.2-7.3-2.1c-2.4-0.8-4.5-1.8-6.5-3V371.7z"/>
	<path fill="#F8F8FF" d="M1000,352c0.1-7.4,1.4-13.9,3.9-19.4c2.5-5.6,5.7-10.2,9.8-13.8c4.1-3.7,8.7-6.4,14-8.3
		c5.3-1.9,10.8-2.8,16.5-2.9c6.7,0,12.6,0.9,17.7,2.9c5.1,2,9.5,4.9,13,8.7c3.5,3.8,6.2,8.4,8,13.8c1.8,5.4,2.7,11.4,2.7,18.2
		c-0.1,7.5-1.2,14.1-3.6,19.9c-2.3,5.8-5.5,10.6-9.5,14.5c-4,3.9-8.6,6.9-13.8,8.9c-5.2,2-10.8,3.1-16.6,3.1
		c-7.6,0-14.2-1.2-19.5-3.6c-5.4-2.4-9.7-5.7-13.1-9.9c-3.4-4.2-5.8-9-7.3-14.5C1000.6,363.9,999.9,358.1,1000,352z M1042.8,387.4
		c3.9,0.1,7.1-0.9,9.6-2.8c2.5-1.9,4.6-4.4,6-7.6c1.5-3.2,2.5-7,3.1-11.3c0.6-4.3,0.9-8.9,0.9-13.7c0-4.3-0.3-8.5-0.9-12.6
		c-0.6-4.1-1.6-7.8-3.1-11.1c-1.5-3.3-3.4-5.9-5.9-7.9c-2.5-2-5.5-3-9.2-3.1c-3.9,0-7.2,0.8-9.7,2.6c-2.6,1.8-4.7,4.2-6.2,7.2
		c-1.6,3-2.7,6.6-3.3,10.6c-0.6,4-1,8.3-1,12.8c0,2.7,0.1,5.4,0.4,8.3c0.3,2.9,0.8,5.6,1.4,8.4c0.7,2.7,1.5,5.3,2.5,7.8
		c1,2.4,2.3,4.6,3.7,6.5c1.5,1.9,3.1,3.3,5.1,4.4C1038.1,386.9,1040.3,387.4,1042.8,387.4z"/>
	<path fill="#F8F8FF" d="M1094.3,386.9l9.9-1.8v-55.5l-10.6-6.7v-7.5l24.8-7.4l4.7,1.5v11.1c1.9-1.7,4.1-3.4,6.5-4.9
		c2.5-1.5,5.1-2.9,7.9-4c2.8-1.1,5.6-2,8.5-2.7c2.9-0.7,5.8-1,8.6-1.1c4.8-0.1,8.8,0.6,12,2.1c3.2,1.5,5.8,3.6,7.8,6.6
		c2,2.9,3.3,6.6,4.2,11c0.8,4.4,1.2,9.5,1.2,15.4v42l11.4,1.8v8.7h-44.3v-8.7l11.2-2v-38.7c0-4.3-0.2-8-0.6-11
		c-0.4-3-1.2-5.4-2.4-7.3c-1.2-1.9-2.9-3.2-5-4c-2.1-0.8-5-1.2-8.5-1.1c-1,0.1-2.1,0.2-3.4,0.4c-1.3,0.2-2.7,0.6-4.1,1
		c-1.4,0.5-2.9,1-4.3,1.7c-1.4,0.7-2.8,1.4-4,2.3V385l10.2,1.9v8.7h-41.9V386.9z"/>
</g>
</svg>
