<?xml version="1.0" encoding="utf-8"?>
<!-- Generator: Adobe Illustrator 17.1.0, SVG Export Plug-In . SVG Version: 6.00 Build 0)  -->
<!DOCTYPE svg PUBLIC "-//W3C//DTD SVG 1.1//EN" "http://www.w3.org/Graphics/SVG/1.1/DTD/svg11.dtd">
<svg version="1.1" id="Layer_1" xmlns="http://www.w3.org/2000/svg" xmlns:xlink="http://www.w3.org/1999/xlink" x="0px" y="0px"
	 viewBox="288.7 45.7 113.2 187.7" enable-background="new 288.7 45.7 113.2 187.7" xml:space="preserve">
<g>
	<path fill="#F9F4ED" d="M289.4,46.3h8.5v46.4h14v7.7h-22.5V46.3z"/>
	<path fill="#F9F4ED" d="M330.4,59.3c0-8.7,4.6-13.6,12.9-13.6c8.4,0,12.9,5,12.9,13.6v28.2c0,8.7-4.6,13.6-12.9,13.6
		c-8.4,0-12.9-5-12.9-13.6V59.3z M338.9,88c0,3.9,1.7,5.3,4.4,5.3s4.4-1.5,4.4-5.3V58.7c0-3.9-1.7-5.3-4.4-5.3s-4.4,1.5-4.4,5.3V88z
		"/>
	<path fill="#F9F4ED" d="M390,70.3h11.9v17.2c0,8.7-4.3,13.6-12.7,13.6c-8.4,0-12.7-5-12.7-13.6V59.3c0-8.7,4.3-13.6,12.7-13.6
		c8.4,0,12.7,5,12.7,13.6v5.3h-8v-5.8c0-3.9-1.7-5.3-4.4-5.3c-2.7,0-4.4,1.5-4.4,5.3V88c0,3.9,1.7,5.3,4.4,5.3
		c2.7,0,4.4-1.4,4.4-5.3V78H390V70.3z"/>
	<path fill="#F9F4ED" d="M288.7,125.4c0-8.7,4.6-13.6,12.9-13.6c8.4,0,12.9,5,12.9,13.6v28.2c0,8.7-4.6,13.6-12.9,13.6
		c-8.4,0-12.9-5-12.9-13.6V125.4z M297.2,154.1c0,3.9,1.7,5.3,4.4,5.3c2.7,0,4.4-1.5,4.4-5.3v-29.3c0-3.9-1.7-5.3-4.4-5.3
		c-2.7,0-4.4,1.5-4.4,5.3V154.1z"/>
	<path fill="#F9F4ED" d="M343,111.8c8.3,0,12.5,5,12.5,13.6v1.7h-8v-2.2c0-3.9-1.5-5.3-4.3-5.3c-2.7,0-4.3,1.5-4.3,5.3
		c0,11.1,16.6,13.2,16.6,28.7c0,8.7-4.3,13.6-12.7,13.6c-8.4,0-12.7-5-12.7-13.6v-3.3h8v3.9c0,3.9,1.7,5.3,4.4,5.3
		c2.7,0,4.4-1.4,4.4-5.3c0-11.1-16.6-13.2-16.6-28.7C330.4,116.8,334.7,111.8,343,111.8z"/>
	<path fill="#BFBCBA" d="M388.4,119.5c-2.7,0-4.4,1.5-4.4,5.3v5.8h-8v-5.3c0-8.7,4.3-13.6,12.7-13.6c8.4,0,12.7,5,12.7,13.6
		c0,17-16.9,23.4-16.9,32.3c0,0.4,0,0.8,0.1,1.2h16.1v7.7h-24.6v-6.7c0-15.9,16.9-18.6,16.9-34.2
		C392.8,120.9,391.1,119.5,388.4,119.5z"/>
	<path fill="#BFBCBA" d="M288.7,191.6c0-8.7,4.6-13.6,12.9-13.6c8.4,0,12.9,5,12.9,13.6v28.2c0,8.7-4.6,13.6-12.9,13.6
		c-8.4,0-12.9-5-12.9-13.6V191.6z M297.2,220.3c0,3.9,1.7,5.3,4.4,5.3c2.7,0,4.4-1.5,4.4-5.3V191c0-3.9-1.7-5.3-4.4-5.3
		c-2.7,0-4.4,1.5-4.4,5.3V220.3z"/>
	<path fill="#BFBCBA" d="M335,185.4c6.6,0,8-3.2,9.4-6.8h5.7v54.2h-8.5v-41.3H335V185.4z"/>
	<path fill="#BFBCBA" d="M393.2,191.9c0-4.9-1.7-6.2-4.4-6.2c-2.7,0-4.4,1.5-4.4,5.3v3.5h-8v-2.9c0-8.7,4.3-13.6,12.7-13.6
		c8.4,0,12.7,5,12.7,13.6v1.4c0,5.8-1.9,9.4-6,11.1c4.3,1.9,6,5.9,6,11.4v4.3c0,8.7-4.3,13.6-12.7,13.6c-8.4,0-12.7-5-12.7-13.6
		v-4.5h8v5c0,3.9,1.7,5.3,4.4,5.3c2.7,0,4.4-1.3,4.4-6.1v-4.3c0-5-1.7-6.9-5.6-6.9h-2.9v-7.7h3.3c3.2,0,5.1-1.4,5.1-5.7V191.9z"/>
</g>
</svg>
