<?xml version="1.0" encoding="utf-8"?>
<!-- Generator: Adobe Illustrator 17.1.0, SVG Export Plug-In . SVG Version: 6.00 Build 0)  -->
<!DOCTYPE svg PUBLIC "-//W3C//DTD SVG 1.1//EN" "http://www.w3.org/Graphics/SVG/1.1/DTD/svg11.dtd">
<svg version="1.1" id="Layer_1" xmlns="http://www.w3.org/2000/svg" xmlns:xlink="http://www.w3.org/1999/xlink" x="0px" y="0px"
	 viewBox="157.4 44.5 503.8 198.8" enable-background="new 157.4 44.5 503.8 198.8" xml:space="preserve">
<g>
	<path fill="#F9F4ED" d="M157.4,134v-3.7h14.1v-82h-14.1v-3.7h33v85.7h26.9c3.4,0,6.2-0.9,8.4-2.5c-5.7,0.6-10.7-3.2-10.7-7.9
		c0-4.4,4.3-8,9.5-8c5.2,0,9.4,3.6,9.4,8c0,8.2-6.8,14.1-16.6,14.1H157.4z"/>
	<path fill="#F9F4ED" d="M248.7,89.2c0-21.4,17.5-44.8,46-44.8c28.7,0,46.2,23.3,46.2,44.8c0,21.6-17.5,44.8-46.2,44.8
		C266.2,134,248.7,110.8,248.7,89.2z M321.8,70.8c0-12.4-12-22.6-27-22.6c-14.8,0-27,10.1-27,22.6v36.8c0,12.6,12,22.6,27,22.6
		s27-10,27-22.6V70.8z"/>
	<path fill="#F9F4ED" d="M361,89.2c0-21.4,17.5-44.6,46-44.6c18.6,0,31.5,11.3,31.5,26.3c0,4.4-4.2,8-9.5,8c-5.2,0-9.5-3.6-9.5-8
		c0-5.7,7-9.5,13.2-7.4c-3.6-9.6-12.3-15.2-25.6-15.2c-15.5,0-27,9.6-27,22.6v36.8c0,12.6,12,22.7,27,22.7c15,0,27-10.1,27-22.7
		V91.1h-28.8v-3.7h47.9c0,23.1-17.1,46.5-46.2,46.5C378.4,134,361,110.8,361,89.2z"/>
	<path fill="#F9F4ED" d="M472.9,89.2c0-21.4,17.5-44.8,46-44.8c28.7,0,46.2,23.3,46.2,44.8c0,21.6-17.5,44.8-46.2,44.8
		C490.4,134,472.9,110.8,472.9,89.2z M546,70.8c0-12.4-12-22.6-27-22.6c-14.8,0-27,10.1-27,22.6v36.8c0,12.6,12,22.6,27,22.6
		c15,0,27-10,27-22.6V70.8z"/>
	<path fill="#F9F4ED" d="M584.3,101.5c0-4.4,4.3-8,9.5-8c5.2,0,9.4,3.6,9.4,8c0,5.7-7.1,9.6-13.3,7.2c3.8,13.4,15.2,21.4,32.8,21.4
		c10.8,0,19.5-7.4,19.5-16.5V89.2c0-10-7.7-16.4-19.5-16.5c-9.8-0.1-16.6-5.7-16.6-14.1c0-8.5,6.8-14.2,16.6-14.2
		c10.1,0,16.7,5.5,16.7,14.2c0,4.3-4.2,8-9.4,8c-5.3,0-9.5-3.7-9.5-8c0-4.7,4.8-8.5,10.4-8c-2.3-1.5-5.2-2.4-8.2-2.4
		c-7.2,0-12.2,4.2-12.2,10.4c0,6.1,4.9,10.4,12.2,10.4c21.3,0,38.6,14.5,38.6,32.5c0,17.9-17.2,32.5-38.6,32.5
		C599.2,134,584.3,120.6,584.3,101.5z"/>
</g>
<g>
	<path fill="#F9F4ED" d="M268.4,243.2c0-18.4,13.2-25.1,29.7-34.1c6.2-3.3,13.3-10.7,13.3-16.7v-24.5c0-5.8-5.5-10.4-12.4-10.4
		c-12.8,0-21.3,5.6-24.7,15.2c6.2-2.2,12.9,1.8,12.9,7.4c0,4.4-4.3,8-9.4,8c-7,0-9.4-4.7-9.4-9.1c0-16,12.3-25.1,30.7-25.1
		c18.4,0,31.1,11,31.1,26.6c0,15.6-14.6,23.7-29.4,31.7c-12.3,6.6-26.8,13.8-27.9,27.3h40.7c3,0,6-0.9,8.1-2.4
		c-5.6,0.5-10.3-3.3-10.3-7.9c0-4.4,4.2-8,9.4-8c6,0,9.5,3.9,9.5,8.5c0,8.6-6.8,13.6-16.6,13.6H268.4z"/>
	<path fill="#F9F4ED" d="M351.4,198.5c0-13.8,7.4-44.8,30.8-44.8c23.6,0,30.9,30.9,30.9,44.8c0,13.9-7.4,44.8-30.9,44.8
		C358.8,243.2,351.4,212.4,351.4,198.5z M394.4,167.9c0-5.7-5.5-10.4-12.2-10.4c-6.6,0-12,4.7-12,10.4v12.3
		c0,7.4,5.1,11.4,11.4,15.5c4.6,3,9.4,5.8,12.8,9.8V167.9z M394.4,216.7c0-7.2-5.1-11.3-11.5-15.5c-4.4-2.9-9.3-5.7-12.7-9.8v37.7
		c0,5.7,5.5,10.4,12,10.4c6.7,0,12.2-4.7,12.2-10.4V216.7z"/>
	<path fill="#F9F4ED" d="M429.9,243.2v-3.7l13.7-0.1v-81.9h-13.7v-3.8c29.4,0,23.5,0,32,0v85.7l13.7,0.1v3.7H429.9z"/>
	<path fill="#F9F4ED" d="M535.9,243.2h-18.6v-24.5h-30.4l45.9-65.4l3.8,1.9l-42,59.7h39.6c3.4,0,6.2-0.8,8.1-2.4
		c-5.7,0.8-10.7-3.2-10.7-7.9c0-4.4,4.2-8.1,9.3-8.1c5.2,0,9.4,3.7,9.4,8c0,7.6-5.6,13.4-14.3,14.1V243.2z"/>
</g>
</svg>
