<?xml version="1.0" encoding="utf-8"?>
<!-- Generator: Adobe Illustrator 17.1.0, SVG Export Plug-In . SVG Version: 6.00 Build 0)  -->
<!DOCTYPE svg PUBLIC "-//W3C//DTD SVG 1.1//EN" "http://www.w3.org/Graphics/SVG/1.1/DTD/svg11.dtd">
<svg version="1.1" id="Layer_1" xmlns="http://www.w3.org/2000/svg" xmlns:xlink="http://www.w3.org/1999/xlink" x="0px" y="0px"
	 viewBox="550 55.3 393.4 523.9" enable-background="new 550 55.3 393.4 523.9" xml:space="preserve">
<g id="Layer_1_copy">
	<path fill="#1A1A1A" d="M807,374.7c-28.4-5.4-56,1.9-60.5,19.2c-5.4-17.5-31.2-24.9-60.5-19.2c-30.3,6.4-34,44.9-106.4,44
		c22,21,153.2,68.8,166.8-1c13.8,68.8,144.9,22,166.8,1C841,420.5,836.3,381.1,807,374.7z"/>
	<path fill="#1A1A1A" d="M843.7,321.4c4.5-6.4,8.3-14.6,9.2-22.9c2.8-27.4-19.2-52.3-47.7-55c-28.5-2.8-55,17.5-57.7,44
		c-2.8,27.4,19.2,52.3,47.7,55c14.6,1.9,28.4-2.8,39.5-11.1c38.5,151.3-6.4,193.5-31.2,211.8c0,0-5.4,0,10.1,10.1
		C898.8,501.1,851.9,340.6,843.7,321.4z M796.1,330.7c-22.9-1.9-38.5-21-36.7-41.4c1.9-21,22-35.7,44-34c22,1.9,38.5,21,36.7,41.4
		C838.3,317.7,818.1,332.3,796.1,330.7z"/>
	<path fill="#1A1A1A" d="M907,482c-13.8-12.8-78,1.9-127.4,27.4c-21-9.2-54.1-6.4-68.8-1C663.1,482.7,599,469,586,481
		c-13.8,13.8-6.4,80.7,19.2,93.6c27.4,12.8,102.8-8.3,111.8-9.2c0,0,0,0,1,0c6.4,6.4,16.5,13.8,27.4,13.8c11.1,0,22-6.4,30.3-13.8
		c13.8,1.9,85.3,21,111.1,9.2C913.4,562.5,920.7,495.6,907,482z"/>
	<path fill="#1A1A1A" d="M730,182c119.2-1,228.3,15.6,211.8,27.4c-22.9,15.6-95.5-1-197.1,1c-57,1-199.9,18.5-194.5,1.9
		C561.2,183.9,730,182,730,182z"/>
	<path fill="#1A1A1A" d="M640.2,172.8c20.1-15.6,155-29.3,212.7,0c1-24.9,2.8-109.1-57-116.5c-41.4-5.4-21,12.8-73.3,3.7
		C668.5,49.9,643.7,84,641,107.8C639.2,123.4,640.2,172.8,640.2,172.8z"/>
</g>
</svg>
