<?xml version="1.0" encoding="utf-8"?>
<!-- Generator: Adobe Illustrator 17.1.0, SVG Export Plug-In . SVG Version: 6.00 Build 0)  -->
<!DOCTYPE svg PUBLIC "-//W3C//DTD SVG 1.1//EN" "http://www.w3.org/Graphics/SVG/1.1/DTD/svg11.dtd">
<svg version="1.1" id="Layer_1" xmlns="http://www.w3.org/2000/svg" xmlns:xlink="http://www.w3.org/1999/xlink" x="0px" y="0px"
	 viewBox="430.6 48.8 548.8 531.1" enable-background="new 430.6 48.8 548.8 531.1" xml:space="preserve">
<g>
	<path fill="#0C0F0E" d="M971.1,143.4C936.6,28.7,790.5,35,700.7,75.3c-67.7,27.5-188.6,64.4-270.1,69.4
		c4,322.2,141.7,365.7,241.8,425.6l0.1-0.8C783.1,435.2,1027.2,336.9,971.1,143.4z"/>
	<path fill="#EC1C24" d="M924.6,183.8c-5.5-35.7-32.1-104.6-138.4-89.8c-44.3,8.1-102.6,41.4-113.7,137.7c0,0-4.1-69.4-6-97
		c-40.2,14.6-108.6,36.3-179.3,48.9c15.9,304.1,94.7,292.1,185.3,396.2C756.4,395.6,952.7,366.9,924.6,183.8z"/>
</g>
</svg>
